<?xml version="1.0" encoding="utf-8"?>
<!-- Generator: Adobe Illustrator 26.5.0, SVG Export Plug-In . SVG Version: 6.00 Build 0)  -->
<svg width="20" height="20" version="1.1" id="レイヤー_1" xmlns="http://www.w3.org/2000/svg" xmlns:xlink="http://www.w3.org/1999/xlink" x="0px"
	 y="0px" viewBox="0 0 700 700" style="enable-background:new 0 0 700 700;" xml:space="preserve">
<style type="text/css">
	.st0{fill:#026BDF;}
</style>
<g>
	<path class="st0" d="M667.1,216.5c-17.2-40.8-42.4-77.6-73.5-109.4c-31.8-31.8-68.5-56.3-109.4-73.5
		C441.8,15.7,396.9,5.9,350.4,5.9s-91.4,9.8-133.9,27.7c-40.8,17.2-77.6,42.4-109.4,73.5c-31.8,31.8-56.3,68.5-73.5,109.4
		C15.7,258.9,5.9,303.8,5.9,350.4s9.8,91.4,27.7,133.9c17.2,40.8,42.4,77.6,73.5,109.4c31.8,31.8,68.5,56.3,109.4,73.5
		c42.4,17.9,87.4,27,133.9,27s91.4-9,133.9-27c40.8-17.2,77.6-42.4,109.4-73.5c31.8-31.8,56.3-68.5,73.5-109.4
		c17.9-42.4,27-87.4,27-133.9C694.1,303.8,685.1,258.9,667.1,216.5L667.1,216.5z"/>
</g>
</svg>
