<?xml version="1.0" encoding="utf-8"?>
<!-- Generator: Adobe Illustrator 26.5.0, SVG Export Plug-In . SVG Version: 6.00 Build 0)  -->
<svg version="1.1" id="レイヤー_1" xmlns="http://www.w3.org/2000/svg" xmlns:xlink="http://www.w3.org/1999/xlink" x="0px"
	 y="0px" viewBox="0 0 700 700" style="enable-background:new 0 0 700 700;" xml:space="preserve">
<g>
	<path d="M567.3,188.2c-11.8-28-29.1-53.2-50.4-75c-21.8-21.8-47-38.6-75-50.4c-29.1-12.3-59.9-19-91.8-19s-62.7,6.7-91.8,19
		c-28,11.8-53.2,29.1-75,50.4c-21.8,21.8-38.6,47-50.4,75c-12.3,29.1-19,59.9-19,91.8s6.7,62.7,19,91.8c11.8,28,29.1,53.2,50.4,75
		c21.8,21.8,47,38.6,75,50.4c29.1,12.3,59.9,18.5,91.8,18.5c31.9,0,62.7-6.2,91.8-18.5c28-11.8,53.2-29.1,75-50.4
		c21.8-21.8,38.6-47,50.4-75c12.3-29.1,18.5-59.9,18.5-91.8C585.8,248.1,579.6,217.3,567.3,188.2L567.3,188.2z"/>
</g>
</svg>
